<svg width="16" height="16" viewBox="0 0 16 16" fill="none" xmlns="http://www.w3.org/2000/svg">
<path d="M0.962812 1.55784C1.24309 1.44359 1.56531 1.50609 1.78031 1.72094L3.06469 3.00531C4.34812 1.74344 6.09937 0.976562 7.97406 0.976562C11.8625 1.00472 15 4.14191 15 8.00128C15 11.8607 11.8625 14.9982 8.00313 14.9982C6.36844 14.9982 4.775 14.4253 3.51875 13.3803C3.20031 13.1147 3.1575 12.6422 3.42306 12.3238C3.68966 12.0044 4.16119 11.9625 4.47963 12.2281C5.46563 13.0482 6.71563 13.5013 8 13.5013C11.0322 13.5013 13.5 11.0335 13.5 8.00128C13.5 4.96909 11.0312 2.50128 8 2.50128C6.52875 2.50128 5.15844 3.10409 4.15 4.09159L5.77938 5.72097C5.99422 5.93581 6.05769 6.25816 5.94247 6.53847C5.82812 6.82003 5.55312 7.00128 5.25 7.00128H1.25C0.835938 7.00128 0.5 6.66691 0.5 6.25128V2.25128C0.5 1.94753 0.6825 1.67409 0.962812 1.55784Z" fill="#04041C" fill-opacity="0.95"/>
</svg>
